<svg width="256" height="256" viewBox="0 0 256 256" fill="none" xmlns="http://www.w3.org/2000/svg">
<rect width="256" height="256" fill="black"/>
<path d="M83.3 159.841C82.3363 162.681 79.6704 164.591 76.6713 164.591H60.9572C58.1196 164.591 55.5627 162.878 54.4834 160.254L29.9741 100.663C28.0794 96.0558 31.4667 91 36.448 91H46.2728C49.1908 91 51.8026 92.81 52.8272 95.5421L63.0808 122.885C65.4071 129.089 74.2504 128.889 76.2938 122.586L84.9651 95.8411C85.9009 92.9548 88.5896 91 91.6238 91H106.061C109.054 91 111.716 92.9027 112.684 95.7345L121.588 121.765C123.711 127.971 132.438 128.111 134.759 121.976L144.765 95.5234C145.795 92.8011 148.401 91 151.312 91H158.744C163.708 91 167.094 96.0236 165.233 100.625L141.124 160.216C140.054 162.861 137.487 164.591 134.635 164.591H121.032C118.079 164.591 115.443 162.738 114.445 159.959L105.181 134.188C102.94 127.953 94.0946 128.032 91.9654 134.306L83.3 159.841Z" fill="white"/>
<path d="M143.344 159.841C142.38 162.681 139.715 164.591 136.716 164.591H121.001C118.164 164.591 115.607 162.878 114.528 160.254L90.0183 100.663C88.1236 96.0558 91.5109 91 96.4922 91H106.317C109.235 91 111.847 92.81 112.871 95.5421L123.125 122.885C125.451 129.089 134.295 128.889 136.338 122.586L145.009 95.8411C145.945 92.9548 148.634 91 151.668 91H166.105C169.098 91 171.76 92.9027 172.729 95.7345L181.632 121.765C183.755 127.971 192.482 128.111 194.803 121.976L204.809 95.5234C205.839 92.8011 208.446 91 211.356 91H218.788C223.752 91 227.139 96.0236 225.277 100.625L201.168 160.216C200.098 162.861 197.531 164.591 194.679 164.591H181.076C178.123 164.591 175.488 162.738 174.489 159.959L165.226 134.188C162.984 127.953 154.139 128.032 152.01 134.306L143.344 159.841Z" fill="white"/>
</svg>
